<svg style="background:#35a414" version="1.1" xmlns="http://www.w3.org/2000/svg">
 <circle cx="344.96021" cy="215.88849" r="56.399384" style="fill:#fff;paint-order:stroke fill markers;stroke-width:.0187595"/>
 <circle cx="89.159378" cy="216.59732" r="55.659718" style="fill:#35a414;paint-order:stroke fill markers;stroke-width:.0185135"/>
 <rect x="6.3170214" y="192.58911" width="15.779498" height=".73966396" style="fill:#fff;stroke-width:0"/>
 <rect x="6.3170214" y="238.44827" width="15.779498" height=".73966396" style="fill:#fff;stroke-width:0"/>
 <rect x="6.3170214" y="193.32877" width=".73966396" height="45.119503" style="fill:#fff;stroke-width:0"/>
 <circle cx="21.356895" cy="6.3170624" r="6.163867" style="fill:#fff;stroke-width:0"/>
 <circle cx="21.356895" cy="6.3170624" r="5.4242029" style="fill:#35a414;stroke-width:0"/>
 <circle cx="89.159378" cy="216.59732" r="5.4242029" style="fill:#35a414;stroke-width:0"/>
 <rect x="14.996602" y="4.196167e-5" width="12.975496" height="6.3170214" style="fill:#35a414;paint-order:stroke fill markers;stroke-width:.00163086"/>
 <rect x="14.454946" y="5.6251373" width="6.9020095" height="7.5848303" style="fill:#35a414;paint-order:stroke fill markers;stroke-width:.00163086"/>
 <rect x="21.356895" y="339.41238" width="101.7038" height=".73966396" style="fill:#fff;paint-order:stroke fill markers;stroke-width:.000632876"/>
 <rect x="21.356895" y="91.624962" width="101.7038" height=".73966396" style="fill:#fff;paint-order:stroke fill markers;stroke-width:.000632876"/>
 <circle cx="89.159378" cy="215.8577" r="56.399384" style="fill:#fff;paint-order:stroke fill markers;stroke-width:.0187595"/>
 <circle cx="89.159378" cy="215.8577" r="55.659718" style="fill:#35a414;paint-order:stroke fill markers;stroke-width:.00403942"/>
 <rect x="122.32099" y="91.624962" width=".73966396" height="248.5271" style="fill:#fff;stroke-width:0"/>
 <rect x="22.096611" y="92.364632" width="100.22684" height="247.04778" style="fill:#35a414;paint-order:stroke fill markers;stroke-width:.00303514"/>
 <rect x="54.518452" y="159.42749" width=".73966396" height="112.92204" style="fill:#fff;stroke-width:0"/>
 <rect x="21.356895" y="159.42749" width="33.901268" height=".73966396" style="fill:#fff;stroke-width:0"/>
 <circle cx="89.159378" cy="215.88849" r=".70884466" style="fill:#fff;paint-order:stroke fill markers;stroke-width:.000295061"/>
 <rect x="21.356895" y="271.60986" width="33.901268" height=".73966396" style="fill:#fff;stroke-width:0"/>
 <circle transform="scale(1,-1)" cx="21.356895" cy="-425.45996" r="6.163867" style="fill:#fff;stroke-width:0"/>
 <circle transform="scale(1,-1)" cx="21.356895" cy="-425.45996" r="5.4242029" style="fill:#35a414;stroke-width:0"/>
 <rect x="21.356895" y="6.3170624" width=".73966396" height="419.14291" style="fill:#fff;stroke-width:.00163086"/>
 <rect x="14.608352" y="418.92725" width="6.7485437" height="12.849731" style="fill:#35a414;paint-order:stroke fill markers;stroke-width:.0022696"/>
 <rect x="17.658569" y="362.89673" width="3.6983199" height=".73966396" style="fill:#fff;paint-order:stroke fill markers;stroke-width:.00516308"/>
 <rect transform="rotate(90)" x="425.45996" y="-83.920105" width="3.6983199" height=".73966396" style="fill:#fff;paint-order:stroke fill markers;stroke-width:.00516308"/>
 <rect transform="rotate(90)" x="2.6187477" y="-83.920105" width="3.6983199" height=".73966396" style="fill:#fff;paint-order:stroke fill markers;stroke-width:.00516308"/>
 <rect x="17.658569" y="68.140648" width="3.6983199" height=".73966396" style="fill:#fff;paint-order:stroke fill markers;stroke-width:.00516308"/>
 <circle cx="344.96021" cy="215.88846" r="55.659718" style="fill:#35a414;paint-order:stroke fill markers;stroke-width:.00403942"/>
 <rect x="344.59039" y="6.3170624" width=".73966396" height="419.14291" style="fill:#fff;paint-order:stroke fill markers;stroke-width:.0230416"/>
 <circle cx="344.96021" cy="215.88846" r=".70884466" style="fill:#fff;paint-order:stroke fill markers;stroke-width:.000295061"/>
 <circle transform="scale(-1,1)" cx="-344.96021" cy="215.88846" r="56.399384" style="fill:#fff;paint-order:stroke fill markers;stroke-width:.0187595"/>
 <circle transform="scale(-1,1)" cx="-600.75977" cy="216.59732" r="55.659718" style="fill:#35a414;paint-order:stroke fill markers;stroke-width:.0185135"/>
 <rect transform="scale(-1,1)" x="-683.60211" y="192.58905" width="15.779498" height=".73966396" style="fill:#fff;stroke-width:0"/>
 <rect transform="scale(-1,1)" x="-683.60211" y="238.44821" width="15.779498" height=".73966396" style="fill:#fff;stroke-width:0"/>
 <rect transform="scale(-1,1)" x="-683.60211" y="193.32874" width=".73966396" height="45.119503" style="fill:#fff;stroke-width:0"/>
 <circle transform="scale(-1,1)" cx="-668.56232" cy="6.3170204" r="6.163867" style="fill:#fff;stroke-width:0"/>
 <circle transform="scale(-1,1)" cx="-668.56232" cy="6.3170204" r="5.4242029" style="fill:#35a414;stroke-width:0"/>
 <circle transform="scale(-1,1)" cx="-600.75977" cy="216.59732" r="5.4242029" style="fill:#35a414;stroke-width:0"/>
 <rect transform="scale(-1,1)" x="-674.92261" width="12.975496" height="6.3170214" style="fill:#35a414;paint-order:stroke fill markers;stroke-width:.00163086"/>
 <rect transform="scale(-1,1)" x="-675.46423" y="5.6251183" width="6.9020095" height="7.5848303" style="fill:#35a414;paint-order:stroke fill markers;stroke-width:.00163086"/>
 <rect transform="scale(-1,1)" x="-668.56232" y="339.41238" width="101.7038" height=".73966396" style="fill:#fff;paint-order:stroke fill markers;stroke-width:.000632876"/>
 <rect transform="scale(-1,1)" x="-668.56232" y="91.624947" width="101.7038" height=".73966396" style="fill:#fff;paint-order:stroke fill markers;stroke-width:.000632876"/>
 <circle transform="scale(-1,1)" cx="-600.75977" cy="215.85767" r="56.399384" style="fill:#fff;paint-order:stroke fill markers;stroke-width:.0187595"/>
 <circle transform="scale(-1,1)" cx="-600.75977" cy="215.85767" r="55.659718" style="fill:#35a414;paint-order:stroke fill markers;stroke-width:.00403942"/>
 <rect transform="scale(-1,1)" x="-567.59814" y="91.624947" width=".73966396" height="248.5271" style="fill:#fff;stroke-width:0"/>
 <rect transform="scale(-1,1)" x="-667.82257" y="92.364601" width="100.22684" height="247.04778" style="fill:#35a414;paint-order:stroke fill markers;stroke-width:.00303514"/>
 <rect transform="scale(-1,1)" x="-635.4007" y="159.42746" width=".73966396" height="112.92204" style="fill:#fff;stroke-width:0"/>
 <rect transform="scale(-1,1)" x="-668.56232" y="159.42746" width="33.901268" height=".73966396" style="fill:#fff;stroke-width:0"/>
 <circle transform="scale(-1,1)" cx="-600.75977" cy="215.88846" r=".70884466" style="fill:#fff;paint-order:stroke fill markers;stroke-width:.000295061"/>
 <rect transform="scale(-1,1)" x="-668.56232" y="271.60983" width="33.901268" height=".73966396" style="fill:#fff;stroke-width:0"/>
 <circle transform="scale(-1)" cx="-668.56232" cy="-425.4599" r="6.163867" style="fill:#fff;stroke-width:0"/>
 <circle transform="scale(-1)" cx="-668.56232" cy="-425.4599" r="5.4242029" style="fill:#35a414;stroke-width:0"/>
 <rect transform="scale(-1,1)" x="-668.56232" y="6.3170204" width=".73966396" height="419.14291" style="fill:#fff;stroke-width:.00163086"/>
 <rect transform="scale(-1,1)" x="-675.31079" y="418.93832" width="6.7485437" height="12.849731" style="fill:#35a414;paint-order:stroke fill markers;stroke-width:.0022696"/>
 <rect transform="scale(-1,1)" x="-672.26056" y="362.8967" width="3.6983199" height=".73966396" style="fill:#fff;paint-order:stroke fill markers;stroke-width:.00516308"/>
 <rect transform="matrix(0,1,1,0,0,0)" x="425.45996" y="605.99902" width="3.6983199" height=".73966396" style="fill:#fff;paint-order:stroke fill markers;stroke-width:.00516308"/>
 <rect transform="matrix(0,1,1,0,0,0)" x="2.6187096" y="605.99902" width="3.6983199" height=".73966396" style="fill:#fff;paint-order:stroke fill markers;stroke-width:.00516308"/>
 <rect transform="scale(-1,1)" x="-672.26056" y="68.140602" width="3.6983199" height=".73966396" style="fill:#fff;paint-order:stroke fill markers;stroke-width:.00516308"/>
 <circle transform="scale(-1,1)" cx="-344.96021" cy="215.88846" r="55.659718" style="fill:#35a414;paint-order:stroke fill markers;stroke-width:.00403942"/>
 <rect transform="scale(-1,1)" x="-345.33002" y="6.3170204" width=".73966396" height="419.14291" style="fill:#fff;paint-order:stroke fill markers;stroke-width:.0230416"/>
 <circle transform="scale(-1,1)" cx="-344.96021" cy="215.88846" r=".70884466" style="fill:#fff;paint-order:stroke fill markers;stroke-width:.000295061"/>
 <rect x="21.356895" y="424.72031" width="647.20599" height=".73966396" style="fill:#fff;stroke-width:.00163086"/>
 <rect x="21.356895" y="6.3170624" width="647.20599" height=".73966396" style="fill:#fff;stroke-width:.00163086"/>
 <rect transform="scale(-1)" x="-34.33239" y="-431.77698" width="12.975496" height="6.3170214" style="fill:#35a414;paint-order:stroke fill markers;stroke-width:.00163086"/>
 <rect transform="scale(-1)" x="-669.59576" y="-431.78806" width="14.009025" height="6.3170214" style="fill:#35a414;paint-order:stroke fill markers;stroke-width:.00169457"/>
 <rect transform="scale(-1)" x="-33.99202" y="-431.77698" width="13.85469" height="6.3170214" style="fill:#35a414;paint-order:stroke fill markers;stroke-width:.00168521"/>
 <rect class="goalLine goalLine1" x="21.356895" y="193.32878" width=".73962474" height="45.119488" style="fill:#fff;paint-order:stroke fill markers;stroke-width:.935167"/>
 <rect class="goalLine goalLine2" x="667.82263" y="193.32872" width=".73962474" height="45.119488" style="fill:#fff;paint-order:stroke fill markers;stroke-width:.935167"/>
</svg>
