<svg xmlns="http://www.w3.org/2000/svg" version="1.1" style="background: #35a414;">
 <g transform="translate(.18002129)" style="fill: white;">
  <circle cx="344.78018" cy="215.88849" r="56.399384" style="paint-order:stroke fill markers;stroke-width:.0187595"/>
  <circle cx="88.979355" cy="216.59732" r="55.659718" style="fill: #35a414;paint-order:stroke fill markers;stroke-width:.0185135"/>
  <rect x="6.1370001" y="192.58911" width="15.779498" height=".73966396" style="stroke-width:0"/>
  <rect x="6.1370001" y="238.44827" width="15.779498" height=".73966396" style="stroke-width:0"/>
  <rect x="6.1370001" y="193.32877" width=".73966396" height="45.119503" style="stroke-width:0"/>
  <circle cx="21.176874" cy="6.3170624" r="6.163867" style="stroke-width:0"/>
  <circle cx="21.176874" cy="6.3170624" r="5.4242029" style="fill: #35a414;stroke-width:0"/>
  <circle cx="88.979355" cy="216.59732" r="5.4242029" style="fill: #35a414;stroke-width:0"/>
  <rect x="14.816581" y="4.196167e-5" width="12.975496" height="6.3170214" style="fill: #35a414;paint-order:stroke fill markers;stroke-width:.00163086"/>
  <rect x="14.274924" y="5.6251373" width="6.9020095" height="7.5848303" style="fill: #35a414;paint-order:stroke fill markers;stroke-width:.00163086"/>
  <rect x="21.176874" y="339.41238" width="101.7038" height=".73966396" style="paint-order:stroke fill markers;stroke-width:.000632876"/>
  <rect x="21.176874" y="91.624962" width="101.7038" height=".73966396" style="paint-order:stroke fill markers;stroke-width:.000632876"/>
  <circle cx="88.979355" cy="215.8577" r="56.399384" style="paint-order:stroke fill markers;stroke-width:.0187595"/>
  <circle cx="88.979355" cy="215.8577" r="55.659718" style="fill: #35a414;paint-order:stroke fill markers;stroke-width:.00403942"/>
  <rect x="122.14097" y="91.624962" width=".73966396" height="248.5271" style="stroke-width:0"/>
  <rect x="21.91659" y="92.364632" width="100.22684" height="247.04778" style="fill: #35a414;paint-order:stroke fill markers;stroke-width:.00303514"/>
  <rect x="54.338428" y="159.42749" width=".73966396" height="112.92204" style="stroke-width:0"/>
  <rect x="21.176874" y="159.42749" width="33.901268" height=".73966396" style="stroke-width:0"/>
  <circle cx="88.979355" cy="215.88849" r=".70884466" style="paint-order:stroke fill markers;stroke-width:.000295061"/>
  <rect x="21.176874" y="271.60986" width="33.901268" height=".73966396" style="stroke-width:0"/>
  <circle transform="scale(1,-1)" cx="21.176874" cy="-425.45996" r="6.163867" style="stroke-width:0"/>
  <circle transform="scale(1,-1)" cx="21.176874" cy="-425.45996" r="5.4242029" style="fill: #35a414;stroke-width:0"/>
  <rect x="21.176874" y="6.3170624" width=".73966396" height="419.14291" style="stroke-width:.00163086"/>
  <rect x="14.42833" y="418.92725" width="6.7485437" height="12.849731" style="fill: #35a414;paint-order:stroke fill markers;stroke-width:.0022696"/>
  <rect x="17.478548" y="362.89673" width="3.6983199" height=".73966396" style="paint-order:stroke fill markers;stroke-width:.00516308"/>
  <rect transform="rotate(90)" x="425.45996" y="-83.740082" width="3.6983199" height=".73966396" style="paint-order:stroke fill markers;stroke-width:.00516308"/>
  <rect transform="rotate(90)" x="2.6187477" y="-83.740082" width="3.6983199" height=".73966396" style="paint-order:stroke fill markers;stroke-width:.00516308"/>
  <rect x="17.478548" y="68.140648" width="3.6983199" height=".73966396" style="paint-order:stroke fill markers;stroke-width:.00516308"/>
  <circle cx="344.78018" cy="215.88846" r="55.659718" style="fill: #35a414;paint-order:stroke fill markers;stroke-width:.00403942"/>
  <rect x="344.41037" y="6.3170624" width=".73966396" height="419.14291" style="paint-order:stroke fill markers;stroke-width:.0230416"/>
  <circle cx="344.78018" cy="215.88846" r=".70884466" style="paint-order:stroke fill markers;stroke-width:.000295061"/>
  <circle transform="scale(-1,1)" cx="-344.78018" cy="215.88846" r="56.399384" style="paint-order:stroke fill markers;stroke-width:.0187595"/>
  <circle transform="scale(-1,1)" cx="-600.57977" cy="216.59732" r="55.659718" style="fill: #35a414;paint-order:stroke fill markers;stroke-width:.0185135"/>
  <rect transform="scale(-1,1)" x="-683.42212" y="192.58905" width="15.779498" height=".73966396" style="stroke-width:0"/>
  <rect transform="scale(-1,1)" x="-683.42212" y="238.44821" width="15.779498" height=".73966396" style="stroke-width:0"/>
  <rect transform="scale(-1,1)" x="-683.42212" y="193.32874" width=".73966396" height="45.119503" style="stroke-width:0"/>
  <circle transform="scale(-1,1)" cx="-668.38232" cy="6.3170204" r="6.163867" style="stroke-width:0"/>
  <circle transform="scale(-1,1)" cx="-668.38232" cy="6.3170204" r="5.4242029" style="fill: #35a414;stroke-width:0"/>
  <circle transform="scale(-1,1)" cx="-600.57977" cy="216.59732" r="5.4242029" style="fill: #35a414;stroke-width:0"/>
  <rect transform="scale(-1,1)" x="-674.74261" width="12.975496" height="6.3170214" style="fill: #35a414;paint-order:stroke fill markers;stroke-width:.00163086"/>
  <rect transform="scale(-1,1)" x="-675.28424" y="5.6251183" width="6.9020095" height="7.5848303" style="fill: #35a414;paint-order:stroke fill markers;stroke-width:.00163086"/>
  <rect transform="scale(-1,1)" x="-668.38232" y="339.41238" width="101.7038" height=".73966396" style="paint-order:stroke fill markers;stroke-width:.000632876"/>
  <rect transform="scale(-1,1)" x="-668.38232" y="91.624947" width="101.7038" height=".73966396" style="paint-order:stroke fill markers;stroke-width:.000632876"/>
  <circle transform="scale(-1,1)" cx="-600.57977" cy="215.85767" r="56.399384" style="paint-order:stroke fill markers;stroke-width:.0187595"/>
  <circle transform="scale(-1,1)" cx="-600.57977" cy="215.85767" r="55.659718" style="fill: #35a414;paint-order:stroke fill markers;stroke-width:.00403942"/>
  <rect transform="scale(-1,1)" x="-567.41815" y="91.624947" width=".73966396" height="248.5271" style="stroke-width:0"/>
  <rect transform="scale(-1,1)" x="-667.64258" y="92.364601" width="100.22684" height="247.04778" style="fill: #35a414;paint-order:stroke fill markers;stroke-width:.00303514"/>
  <rect transform="scale(-1,1)" x="-635.2207" y="159.42746" width=".73966396" height="112.92204" style="stroke-width:0"/>
  <rect transform="scale(-1,1)" x="-668.38232" y="159.42746" width="33.901268" height=".73966396" style="stroke-width:0"/>
  <circle transform="scale(-1,1)" cx="-600.57977" cy="215.88846" r=".70884466" style="paint-order:stroke fill markers;stroke-width:.000295061"/>
  <rect transform="scale(-1,1)" x="-668.38232" y="271.60983" width="33.901268" height=".73966396" style="stroke-width:0"/>
  <circle transform="scale(-1)" cx="-668.38232" cy="-425.4599" r="6.163867" style="stroke-width:0"/>
  <circle transform="scale(-1)" cx="-668.38232" cy="-425.4599" r="5.4242029" style="fill: #35a414;stroke-width:0"/>
  <rect transform="scale(-1,1)" x="-668.38232" y="6.3170204" width=".73966396" height="419.14291" style="stroke-width:.00163086"/>
  <rect transform="scale(-1,1)" x="-675.1308" y="418.93832" width="6.7485437" height="12.849731" style="fill: #35a414;paint-order:stroke fill markers;stroke-width:.0022696"/>
  <rect transform="scale(-1,1)" x="-672.08057" y="362.8967" width="3.6983199" height=".73966396" style="paint-order:stroke fill markers;stroke-width:.00516308"/>
  <rect transform="matrix(0,1,1,0,0,0)" x="425.45996" y="605.81903" width="3.6983199" height=".73966396" style="paint-order:stroke fill markers;stroke-width:.00516308"/>
  <rect transform="matrix(0,1,1,0,0,0)" x="2.6187096" y="605.81903" width="3.6983199" height=".73966396" style="paint-order:stroke fill markers;stroke-width:.00516308"/>
  <rect transform="scale(-1,1)" x="-672.08057" y="68.140602" width="3.6983199" height=".73966396" style="paint-order:stroke fill markers;stroke-width:.00516308"/>
  <circle transform="scale(-1,1)" cx="-344.78018" cy="215.88846" r="55.659718" style="fill: #35a414;paint-order:stroke fill markers;stroke-width:.00403942"/>
  <rect transform="scale(-1,1)" x="-345.14999" y="6.3170204" width=".73966396" height="419.14291" style="paint-order:stroke fill markers;stroke-width:.0230416"/>
  <circle transform="scale(-1,1)" cx="-344.78018" cy="215.88846" r=".70884466" style="paint-order:stroke fill markers;stroke-width:.000295061"/>
  <rect x="21.176874" y="424.72031" width="647.20599" height=".73966396" style="stroke-width:.00163086"/>
  <rect x="21.176874" y="6.3170624" width="647.20599" height=".73966396" style="stroke-width:.00163086"/>
  <rect transform="scale(-1)" x="-34.15237" y="-431.77698" width="12.975496" height="6.3170214" style="fill: #35a414;paint-order:stroke fill markers;stroke-width:.00163086"/>
  <rect transform="scale(-1)" x="-669.41577" y="-431.78806" width="14.009025" height="6.3170214" style="fill: #35a414;paint-order:stroke fill markers;stroke-width:.00169457"/>
  <rect transform="scale(-1)" x="-33.812" y="-431.77698" width="13.85469" height="6.3170214" style="fill: #35a414;paint-order:stroke fill markers;stroke-width:.00168521"/>
 </g>
</svg>